<svg version="1.1" id="Layer_1" xmlns:x="ns_extend;" xmlns:i="ns_ai;" xmlns:graph="ns_graphs;" xmlns="http://www.w3.org/2000/svg" xmlns:xlink="http://www.w3.org/1999/xlink" x="0px" y="0px" viewBox="0 0 190.7 58" style="enable-background:new 0 0 190.7 58;" xml:space="preserve">
 <style type="text/css">
  .st0{fill:#FF5745;}
	.st1{fill:#0072CE;}
 </style>
 <metadata>
  <sfw xmlns="ns_sfw;">
   <slices>
   </slices>
   <sliceSourceBounds bottomLeftOrigin="true" height="58" width="190.7" x="0" y="-5.4">
   </sliceSourceBounds>
  </sfw>
 </metadata>
 <g>
  <g>
   <g>
    <path class="st0" d="M73.9,27.3c-3.9,0-7.2,2-8.7,5.5c-0.7,1.9-1.1,4-1.1,6v0.3c0,8.9,4.5,11.9,10.4,11.9c1.6,0,3.2-0.3,4.6-0.9
				c1.5-0.6,2.8-1.6,3.8-2.8c0,0,0,0,0-0.1c0,0,0,0,0-0.1c0,0,0,0,0-0.1c0,0,0,0,0-0.1l-2.8-2.5c0,0-0.1,0-0.1,0c0,0-0.1,0-0.1,0
				c-0.7,0.7-1.5,1.3-2.4,1.7c-0.9,0.4-1.9,0.6-2.9,0.5c-3.8,0-5.8-2.4-5.8-6.4h14.6c0,0,0,0,0.1,0c0,0,0,0,0.1,0c0,0,0,0,0-0.1
				c0,0,0,0,0-0.1l0-3.5C83.7,31.2,80.1,27.3,73.9,27.3L73.9,27.3z M79.2,36.7H68.9v-0.4c0-0.8,0.2-1.7,0.6-2.4
				c0.7-1.3,2.4-2.2,4.5-2.2s3.8,0.9,4.5,2.2c0.4,0.7,0.6,1.5,0.6,2.4L79.2,36.7z">
    </path>
    <path class="st0" d="M119.6,27.3c-3.9,0-7.2,2-8.7,5.5c-0.7,1.9-1.1,4-1.1,6v0.3c0,8.9,4.5,11.9,10.4,11.9c1.6,0,3.2-0.3,4.6-0.9
				c1.5-0.6,2.8-1.6,3.8-2.8c0,0,0,0,0-0.1c0,0,0,0,0-0.1c0,0,0,0,0-0.1c0,0,0,0-0.1-0.1l-2.8-2.5c0,0-0.1,0-0.1,0c0,0-0.1,0-0.1,0
				c-0.7,0.7-1.5,1.3-2.4,1.7c-0.9,0.4-1.9,0.6-2.9,0.5c-3.8,0-5.8-2.4-5.8-6.4h14.6c0,0,0,0,0.1,0c0,0,0,0,0.1,0c0,0,0,0,0-0.1
				c0,0,0,0,0-0.1l0-3.5C129.3,31.2,125.7,27.3,119.6,27.3z M124.8,36.7h-10.2v-0.4c0-0.8,0.2-1.7,0.6-2.4c0.7-1.3,2.4-2.2,4.5-2.2
				c2.2,0,3.8,0.9,4.5,2.2c0.4,0.7,0.6,1.5,0.6,2.4L124.8,36.7z">
    </path>
    <path class="st0" d="M43.7,27.8v3.9c0,0.1,0.1,0.2,0.2,0.2h10.7L43.1,50.6c0,0,0,0,0,0.1c0,0,0,0,0,0.1c0,0,0,0,0,0.1
				c0,0,0,0,0.1,0c0,0,0,0,0,0c0,0,0,0,0,0h18.8c0,0,0.1,0,0.1-0.1c0,0,0-0.1,0-0.1v-3.9c0,0,0-0.1,0-0.1c0,0-0.1-0.1-0.1-0.1H50.9
				l11.3-18.7c0,0,0,0,0-0.1c0,0,0,0,0-0.1c0,0,0,0,0-0.1c0,0,0,0-0.1,0c0,0,0,0,0,0c0,0,0,0-0.1,0H43.9c0,0,0,0-0.1,0
				c0,0,0,0-0.1,0C43.7,27.6,43.7,27.7,43.7,27.8C43.7,27.7,43.7,27.7,43.7,27.8">
    </path>
    <path class="st0" d="M166,21.6h-4.1c0,0-0.1,0-0.1,0c0,0,0,0.1,0,0.1v5.8h-3.1c0,0,0,0-0.1,0c0,0,0,0-0.1,0c0,0,0,0,0,0.1
				c0,0,0,0,0,0.1v3.9c0,0.1,0.1,0.2,0.2,0.2h3.1V44c0,5,3.7,7,7.7,7c0.3,0,0.6,0,0.9,0c0,0,0.1,0,0.1-0.1c0,0,0-0.1,0-0.1v-4
				c0,0,0-0.1-0.1-0.1c0,0-0.1,0-0.1,0c-0.2,0-0.5,0-0.7,0c-2.3-0.1-3.4-1.3-3.4-4V31.8h4.5c0,0,0.1,0,0.1,0c0,0,0.1-0.1,0.1-0.1
				v-3.9c0,0,0-0.1-0.1-0.1c0,0-0.1-0.1-0.1-0.1h-4.5v-5.8C166.2,21.7,166.1,21.6,166,21.6z">
    </path>
    <path class="st0" d="M188.3,39.1c-1.5-1.1-3.8-1.7-6.6-2.1c-3.7-0.6-4.2-1.4-4.2-2.8c0-0.4,0.1-0.8,0.3-1.2
				c0.2-0.3,0.5-0.6,0.9-0.8c1.1-0.5,2.3-0.7,3.5-0.5c1.6,0.1,3.1,0.8,4.2,1.9c0,0,0,0,0,0c0,0,0,0,0.1,0c0,0,0,0,0.1,0
				c0,0,0,0,0.1,0h0l2.8-2.5c0,0,0,0,0,0c0,0,0,0,0-0.1c0,0,0,0,0-0.1c0,0,0,0,0-0.1c-0.5-0.7-1.2-1.3-1.9-1.7
				c-0.9-0.5-1.8-1-2.8-1.3c-1.1-0.3-2.2-0.4-3.3-0.4c-1.5,0-3,0.2-4.4,0.8c-1,0.4-1.8,1-2.5,1.8c-0.7,0.8-1.2,1.7-1.4,2.8
				c-0.3,1.2-0.2,2.4,0.1,3.6c0.3,0.8,0.7,1.5,1.3,2.2c1.7,1.8,4.3,2.3,6.8,2.8c1.7,0.3,4.8,0.4,4.8,2.8c-0.1,2.4-2.9,3-4.8,3
				c-1,0-2.1-0.2-3-0.6c-1-0.4-1.8-1-2.6-1.7c0,0-0.1,0-0.1,0c0,0-0.1,0-0.1,0l-2.7,2.5c0,0-0.1,0.1-0.1,0.1c0,0,0,0.1,0,0.1
				c2,2.3,5.4,3.6,8.9,3.6c4.5,0,8.7-2.2,8.9-6.8C190.8,42,190,40.3,188.3,39.1">
    </path>
    <path class="st0" d="M152.6,16.9c0.6,0,1.2,0.2,1.8,0.5c0.5,0.3,0.9,0.8,1.2,1.4c0.2,0.6,0.3,1.2,0.2,1.8
				c-0.1,0.6-0.4,1.2-0.9,1.6c-0.4,0.4-1,0.7-1.6,0.9c-0.6,0.1-1.3,0.1-1.8-0.2c-0.6-0.2-1.1-0.6-1.4-1.2c-0.3-0.5-0.5-1.1-0.5-1.8
				c0-0.8,0.3-1.7,0.9-2.2C151,17.2,151.8,16.9,152.6,16.9z">
    </path>
    <path class="st0" d="M139.7,27.6v-3.2c0.1-2.4,1.7-3.3,3.6-3.3c1,0,1.9,0,2.9,0.2c0,0,0,0,0.1,0c0,0,0,0,0.1,0c0,0,0,0,0,0
				c0,0,0,0,0-0.1v-3.9c0,0,0,0,0-0.1c0,0,0,0,0-0.1s0,0-0.1,0c0,0,0,0-0.1,0c-0.9-0.2-1.9-0.3-2.9-0.3H143c-4.5,0-7.8,2.5-7.8,7.2
				v3.6h-3.5c0,0,0,0-0.1,0c0,0,0,0-0.1,0c0,0,0,0,0,0.1c0,0,0,0,0,0.1v3.9c0,0.1,0.1,0.2,0.2,0.2h3.5v18.9c0,0,0,0.1,0,0.1
				c0,0,0.1,0.1,0.1,0.1h4.1c0,0,0.1,0,0.1-0.1c0,0,0-0.1,0-0.1V31.8h10.7v18.9c0,0,0,0.1,0,0.1c0,0,0.1,0.1,0.1,0.1h4.1
				c0,0,0.1,0,0.1-0.1c0,0,0-0.1,0-0.1V27.8c0-0.1-0.1-0.2-0.2-0.2H139.7z">
    </path>
    <path class="st0" d="M103.5,29.4c-1.5-1.4-3.4-2.1-6-2.1c-1.7-0.1-3.4,0.4-4.8,1.3c-0.3,0.2-0.6,0.4-0.9,0.7
				c-0.1,0.1-0.1,0.1-0.2,0.2v-1.7c0-0.1-0.1-0.2-0.2-0.2h-4.1c0,0-0.1,0-0.1,0.1c0,0,0,0.1,0,0.1v22.9c0,0,0,0.1,0,0.1
				c0,0,0.1,0.1,0.1,0.1h4.1c0,0,0.1,0,0.1-0.1s0-0.1,0-0.1V35.5c0.1-0.6,0.2-1.2,0.6-1.7c0.3-0.5,0.8-0.9,1.3-1.2
				c1.2-0.7,3.2-0.8,4.6-0.6c1,0.2,2,0.7,2.7,1.5c0.7,0.8,1,1.8,1,2.9v14.3c0,0,0,0.1,0,0.1c0,0,0.1,0.1,0.1,0.1h4.1
				c0,0,0.1,0,0.1-0.1c0,0,0-0.1,0-0.1V36.4c0.1-1.3-0.1-2.6-0.6-3.8C105.1,31.4,104.4,30.3,103.5,29.4">
    </path>
    <path class="st0" d="M29.4,20.7v4.7L0,40.7V36l11.7-6.1L0,27v-4.3L17.3,27l6.6-3.5L0,17.6v-4.3L29.4,20.7z M0,50.6L29.4,58v-4.3
				l-23.9-6l6.6-3.5l17.3,4.3v-4.3l-11.7-2.9l11.7-6.1v-4.7L0,45.9L0,50.6L0,50.6z">
    </path>
    <path class="st1" d="M97.7,12.1h-8.8c0.1,2.6,1.6,4,4.3,4c1.6-0.1,3-0.6,4.2-1.6h0.1v3c-1.5,0.6-3.1,1-4.8,1
				c-2.3,0-4.1-0.6-5.4-1.8c-1.2-1.2-1.9-2.9-1.8-5.1c0-2.2,0.6-3.9,1.7-5.2c0.6-0.6,1.4-1.1,2.2-1.5c0.8-0.3,1.7-0.5,2.6-0.4
				c3.7,0,5.6,2.1,5.6,6.3L97.7,12.1z M94.4,10.1c0-2.3-0.9-3.4-2.6-3.4c-1.8,0-2.8,1.1-2.9,3.4H94.4z">
    </path>
    <path class="st1" d="M69.2,1.8c0,0.4-0.1,0.7-0.3,1c-0.2,0.3-0.5,0.5-0.8,0.7c-0.3,0.1-0.7,0.2-1,0.1s-0.7-0.2-0.9-0.5
				c-0.3-0.3-0.4-0.6-0.5-0.9c-0.1-0.3,0-0.7,0.1-1c0.1-0.3,0.4-0.6,0.7-0.8C66.7,0.1,67,0,67.4,0c0.5,0,0.9,0.2,1.3,0.5
				C69,0.9,69.2,1.3,69.2,1.8z">
    </path>
    <path class="st1" d="M43.7,1.6c0-0.1,0.1-0.3,0.2-0.4C44,1.1,44.1,1,44.3,1h13v2.9h-5.1v14.2h-3.4V3.8h-5.1V1.6z">
    </path>
    <path class="st1" d="M55.8,5.5c0-0.1,0.1-0.3,0.2-0.4C56.1,5,56.2,5,56.3,4.9h2.8v2.4c0.7-0.8,1.6-1.4,2.5-1.9
				c0.6-0.3,1.3-0.5,1.9-0.5h0.7v3.6h-0.1c-0.6-0.1-1.2-0.2-1.8-0.2c-1.1,0-2.3,0.2-3.2,0.8v9h-3.3V5.5L55.8,5.5z">
    </path>
    <path class="st1" d="M81,1.8V12L75,1h-3.6c-0.1,0-0.3,0.1-0.4,0.2c-0.1,0.1-0.2,0.3-0.2,0.4v16.5H74V5.6l6.9,12.5h3.3V1h-2.6
				c-0.1,0-0.3,0.1-0.4,0.2C81.1,1.3,81,1.4,81,1.6L81,1.8z">
    </path>
    <path class="st1" d="M99.1,7.3v6.8c0,1.5,0.3,2.6,1,3.3c0.7,0.7,1.8,1,3.3,1c1,0,1.9-0.1,2.8-0.3v-2.4h-0.1
				c-0.5,0.3-1,0.4-1.5,0.4c-0.3,0-0.6,0-0.9-0.1c-0.3-0.1-0.6-0.3-0.8-0.5c-0.3-0.4-0.5-1.3-0.5-2.7V7.3h2.9V5h-2.9V1h-2.8
				c-0.1,0-0.3,0.1-0.4,0.2c-0.1,0.1-0.2,0.3-0.2,0.4L99.1,7.3L99.1,7.3z">
    </path>
    <path class="st1" d="M65.7,5.5c0-0.1,0.1-0.3,0.2-0.4C66,5,66.1,5,66.3,4.9H69v13.1h-3.3V5.5z">
    </path>
   </g>
  </g>
 </g>
</svg>