<svg version="1.1" id="Layer_1" xmlns:x="ns_extend;" xmlns:i="ns_ai;" xmlns:graph="ns_graphs;" xmlns="http://www.w3.org/2000/svg" xmlns:xlink="http://www.w3.org/1999/xlink" x="0px" y="0px" viewBox="0 0 190.7 44.7" style="enable-background:new 0 0 190.7 44.7;" xml:space="preserve">
 <style type="text/css">
  .st0{fill:#FFFFFF;}
 </style>
 <metadata>
  <sfw xmlns="ns_sfw;">
   <slices>
   </slices>
   <sliceSourceBounds bottomLeftOrigin="true" height="44.7" width="190.7" x="0" y="-5.4">
   </sliceSourceBounds>
  </sfw>
 </metadata>
 <g>
  <g>
   <g>
    <path class="st0" d="M73.9,14.1c-3.9,0-7.2,2-8.7,5.5c-0.7,1.9-1.1,4-1.1,6v0.3c0,8.9,4.5,11.9,10.4,11.9c1.6,0,3.2-0.3,4.6-0.9
				c1.5-0.6,2.8-1.6,3.8-2.8c0,0,0,0,0-0.1c0,0,0,0,0-0.1c0,0,0,0,0-0.1c0,0,0,0,0-0.1l-2.8-2.5c0,0-0.1,0-0.1,0c0,0-0.1,0-0.1,0
				c-0.7,0.7-1.5,1.3-2.4,1.7c-0.9,0.4-1.9,0.6-2.9,0.5c-3.8,0-5.8-2.4-5.8-6.4h14.6c0,0,0,0,0.1,0c0,0,0,0,0.1,0c0,0,0,0,0-0.1
				c0,0,0,0,0-0.1l0-3.5C83.7,17.9,80.1,14,73.9,14.1L73.9,14.1z M79.2,23.4H68.9V23c0-0.8,0.2-1.7,0.6-2.4c0.7-1.3,2.4-2.2,4.5-2.2
				s3.8,0.9,4.5,2.2c0.4,0.7,0.6,1.5,0.6,2.4L79.2,23.4z">
    </path>
    <path class="st0" d="M119.6,14.1c-3.9,0-7.2,2-8.7,5.5c-0.7,1.9-1.1,4-1.1,6v0.3c0,8.9,4.5,11.9,10.4,11.9c1.6,0,3.2-0.3,4.6-0.9
				c1.5-0.6,2.8-1.6,3.8-2.8c0,0,0,0,0-0.1c0,0,0,0,0-0.1c0,0,0,0,0-0.1c0,0,0,0-0.1-0.1l-2.8-2.5c0,0-0.1,0-0.1,0c0,0-0.1,0-0.1,0
				c-0.7,0.7-1.5,1.3-2.4,1.7c-0.9,0.4-1.9,0.6-2.9,0.5c-3.8,0-5.8-2.4-5.8-6.4h14.6c0,0,0,0,0.1,0c0,0,0,0,0.1,0c0,0,0,0,0-0.1
				c0,0,0,0,0-0.1l0-3.5C129.3,18,125.7,14.1,119.6,14.1z M124.8,23.4h-10.2V23c0-0.8,0.2-1.7,0.6-2.4c0.7-1.3,2.4-2.2,4.5-2.2
				c2.2,0,3.8,0.9,4.5,2.2c0.4,0.7,0.6,1.5,0.6,2.4L124.8,23.4z">
    </path>
    <path class="st0" d="M43.7,14.5v3.9c0,0.1,0.1,0.2,0.2,0.2h10.7L43.1,37.3c0,0,0,0,0,0.1c0,0,0,0,0,0.1c0,0,0,0,0,0.1
				c0,0,0,0,0.1,0c0,0,0,0,0,0c0,0,0,0,0,0h18.8c0,0,0.1,0,0.1-0.1c0,0,0-0.1,0-0.1v-3.9c0,0,0-0.1,0-0.1c0,0-0.1-0.1-0.1-0.1H50.9
				l11.3-18.7c0,0,0,0,0-0.1c0,0,0,0,0-0.1c0,0,0,0,0-0.1c0,0,0,0-0.1,0c0,0,0,0,0,0c0,0,0,0-0.1,0H43.9c0,0,0,0-0.1,0
				c0,0,0,0-0.1,0C43.7,14.4,43.7,14.4,43.7,14.5C43.7,14.4,43.7,14.4,43.7,14.5">
    </path>
    <path class="st0" d="M166,8.3h-4.1c0,0-0.1,0-0.1,0c0,0,0,0.1,0,0.1v5.8h-3.1c0,0,0,0-0.1,0c0,0,0,0-0.1,0c0,0,0,0,0,0.1
				c0,0,0,0,0,0.1v3.9c0,0.1,0.1,0.2,0.2,0.2h3.1v12.2c0,5,3.7,7,7.7,7c0.3,0,0.6,0,0.9,0c0,0,0.1,0,0.1-0.1c0,0,0-0.1,0-0.1v-4
				c0,0,0-0.1-0.1-0.1c0,0-0.1,0-0.1,0c-0.2,0-0.5,0-0.7,0c-2.3-0.1-3.4-1.3-3.4-4V18.5h4.5c0,0,0.1,0,0.1,0c0,0,0.1-0.1,0.1-0.1
				v-3.9c0,0,0-0.1-0.1-0.1c0,0-0.1-0.1-0.1-0.1h-4.5V8.5C166.2,8.4,166.1,8.3,166,8.3z">
    </path>
    <path class="st0" d="M188.3,25.8c-1.5-1.1-3.8-1.7-6.6-2.1c-3.7-0.6-4.2-1.4-4.2-2.8c0-0.4,0.1-0.8,0.3-1.2
				c0.2-0.3,0.5-0.6,0.9-0.8c1.1-0.5,2.3-0.7,3.5-0.5c1.6,0.1,3.1,0.8,4.2,1.9c0,0,0,0,0,0c0,0,0,0,0.1,0c0,0,0,0,0.1,0
				c0,0,0,0,0.1,0h0l2.8-2.5c0,0,0,0,0,0c0,0,0,0,0-0.1c0,0,0,0,0-0.1c0,0,0,0,0-0.1c-0.5-0.7-1.2-1.3-1.9-1.7
				c-0.9-0.5-1.8-1-2.8-1.3c-1.1-0.3-2.2-0.4-3.3-0.4c-1.5,0-3,0.2-4.4,0.8c-1,0.4-1.8,1-2.5,1.8c-0.7,0.8-1.2,1.7-1.4,2.8
				c-0.3,1.2-0.2,2.4,0.1,3.6c0.3,0.8,0.7,1.5,1.3,2.2c1.7,1.8,4.3,2.3,6.8,2.8c1.7,0.3,4.8,0.4,4.8,2.8c-0.1,2.4-2.9,3-4.8,3
				c-1,0-2.1-0.2-3-0.6c-1-0.4-1.8-1-2.6-1.7c0,0-0.1,0-0.1,0c0,0-0.1,0-0.1,0l-2.7,2.5c0,0-0.1,0.1-0.1,0.1c0,0,0,0.1,0,0.1
				c2,2.3,5.4,3.6,8.9,3.6c4.5,0,8.7-2.2,8.9-6.8C190.8,28.7,190,27,188.3,25.8">
    </path>
    <path class="st0" d="M152.6,3.6c0.6,0,1.2,0.2,1.8,0.5c0.5,0.3,0.9,0.8,1.2,1.4c0.2,0.6,0.3,1.2,0.2,1.8
				c-0.1,0.6-0.4,1.2-0.9,1.6c-0.4,0.4-1,0.7-1.6,0.9c-0.6,0.1-1.3,0.1-1.8-0.2c-0.6-0.2-1.1-0.6-1.4-1.2c-0.3-0.5-0.5-1.1-0.5-1.8
				c0-0.8,0.3-1.7,0.9-2.2C151,3.9,151.8,3.6,152.6,3.6z">
    </path>
    <path class="st0" d="M139.7,14.3v-3.2c0.1-2.4,1.7-3.3,3.6-3.3c1,0,1.9,0,2.9,0.2c0,0,0,0,0.1,0c0,0,0,0,0.1,0c0,0,0,0,0,0
				c0,0,0,0,0-0.1V3.9c0,0,0,0,0-0.1c0,0,0,0,0-0.1c0,0,0,0-0.1,0c0,0,0,0-0.1,0c-0.9-0.2-1.9-0.3-2.9-0.3H143
				c-4.5,0-7.8,2.5-7.8,7.2v3.6h-3.5c0,0,0,0-0.1,0c0,0,0,0-0.1,0c0,0,0,0,0,0.1c0,0,0,0,0,0.1v3.9c0,0.1,0.1,0.2,0.2,0.2h3.5v18.9
				c0,0,0,0.1,0,0.1c0,0,0.1,0.1,0.1,0.1h4.1c0,0,0.1,0,0.1-0.1c0,0,0-0.1,0-0.1V18.6h10.7v18.9c0,0,0,0.1,0,0.1
				c0,0,0.1,0.1,0.1,0.1h4.1c0,0,0.1,0,0.1-0.1c0,0,0-0.1,0-0.1V14.5c0-0.1-0.1-0.2-0.2-0.2H139.7z">
    </path>
    <path class="st0" d="M103.5,16.1c-1.5-1.4-3.4-2.1-6-2.1c-1.7-0.1-3.4,0.4-4.8,1.3c-0.3,0.2-0.6,0.4-0.9,0.7
				c-0.1,0.1-0.1,0.1-0.2,0.2v-1.7c0-0.1-0.1-0.2-0.2-0.2h-4.1c0,0-0.1,0-0.1,0.1c0,0,0,0.1,0,0.1v22.9c0,0,0,0.1,0,0.1
				c0,0,0.1,0.1,0.1,0.1h4.1c0,0,0.1,0,0.1-0.1s0-0.1,0-0.1V22.2c0.1-0.6,0.2-1.2,0.6-1.7c0.3-0.5,0.8-0.9,1.3-1.2
				c1.2-0.7,3.2-0.8,4.6-0.6c1,0.2,2,0.7,2.7,1.5c0.7,0.8,1,1.8,1,2.9v14.3c0,0,0,0.1,0,0.1c0,0,0.1,0.1,0.1,0.1h4.1
				c0,0,0.1,0,0.1-0.1c0,0,0-0.1,0-0.1V23.1c0.1-1.3-0.1-2.6-0.6-3.8C105.1,18.1,104.4,17,103.5,16.1">
    </path>
    <path class="st0" d="M29.4,7.4v4.7L0,27.5v-4.7l11.7-6.1L0,13.7V9.4l17.3,4.4l6.6-3.5L0,4.3V0L29.4,7.4z M0,37.3l29.4,7.4v-4.3
				l-23.9-6l6.6-3.5l17.3,4.3V31l-11.7-2.9L29.4,22v-4.7L0,32.6L0,37.3L0,37.3z">
    </path>
   </g>
  </g>
 </g>
</svg>